<svg xmlns="http://www.w3.org/2000/svg" width="19.839" height="19.839" viewBox="0 0 19.839 19.839"><defs><style>.a{fill:#ed1500;}</style></defs><path class="a" d="M7.646,6.613h-6.2A1.448,1.448,0,0,1,0,5.166V1.447A1.448,1.448,0,0,1,1.447,0h6.2A1.448,1.448,0,0,1,9.093,1.447v3.72A1.448,1.448,0,0,1,7.646,6.613ZM1.447,1.24a.207.207,0,0,0-.207.207v3.72a.207.207,0,0,0,.207.207h6.2a.207.207,0,0,0,.207-.207V1.447a.207.207,0,0,0-.207-.207Zm0,0"/><path class="a" d="M7.646,224.9h-6.2A1.448,1.448,0,0,1,0,223.458v-8.68a1.448,1.448,0,0,1,1.447-1.447h6.2a1.448,1.448,0,0,1,1.447,1.447v8.68A1.448,1.448,0,0,1,7.646,224.9Zm-6.2-10.333a.207.207,0,0,0-.207.207v8.68a.207.207,0,0,0,.207.207h6.2a.207.207,0,0,0,.207-.207v-8.68a.207.207,0,0,0-.207-.207Zm0,0" transform="translate(0 -205.066)"/><path class="a" d="M284.979,347.945h-6.2a1.448,1.448,0,0,1-1.447-1.447v-3.72a1.448,1.448,0,0,1,1.447-1.447h6.2a1.448,1.448,0,0,1,1.447,1.447v3.72A1.448,1.448,0,0,1,284.979,347.945Zm-6.2-5.373a.207.207,0,0,0-.207.207v3.72a.207.207,0,0,0,.207.207h6.2a.207.207,0,0,0,.207-.207v-3.72a.207.207,0,0,0-.207-.207Zm0,0" transform="translate(-266.586 -328.106)"/><path class="a" d="M284.979,11.573h-6.2a1.448,1.448,0,0,1-1.447-1.447V1.447A1.448,1.448,0,0,1,278.779,0h6.2a1.448,1.448,0,0,1,1.447,1.447v8.68A1.448,1.448,0,0,1,284.979,11.573Zm-6.2-10.333a.207.207,0,0,0-.207.207v8.68a.207.207,0,0,0,.207.207h6.2a.207.207,0,0,0,.207-.207V1.447a.207.207,0,0,0-.207-.207Zm0,0" transform="translate(-266.586)"/></svg>