<svg xmlns="http://www.w3.org/2000/svg" width="30.3" height="36.5" viewBox="0 0 30.3 36.5">
  <g id="Group_344" data-name="Group 344" transform="translate(0.75 0.75)">
    <g id="clipboard_2_" data-name="clipboard (2)">
      <path id="Path_359" data-name="Path 359" d="M25.6,4h3.6a3.573,3.573,0,0,1,3.6,3.544V32.356A3.573,3.573,0,0,1,29.2,35.9H7.6A3.573,3.573,0,0,1,4,32.356V7.544A3.573,3.573,0,0,1,7.6,4h3.6" transform="translate(-4 -0.9)" fill="none" stroke="#afafaf" stroke-linecap="round" stroke-linejoin="round" stroke-width="1.5"/>
      <rect id="Rectangle_203" data-name="Rectangle 203" width="17" height="6" rx="1" transform="translate(5.8)" stroke-width="1.5" stroke="#afafaf" stroke-linecap="round" stroke-linejoin="round" fill="none"/>
    </g>
    <path id="Union_3" data-name="Union 3" d="M5.5,5.5,0,11,5.5,5.5,0,0,5.5,5.5,11,0,5.5,5.5,11,11Z" transform="translate(9.416 16.2)" fill="none" stroke="#afafaf" stroke-linecap="round" stroke-linejoin="round" stroke-width="1.5"/>
  </g>
</svg>
