<svg xmlns="http://www.w3.org/2000/svg" width="19.766" height="19.766" viewBox="0 0 19.766 19.766"><path d="M267.078,8.648H274.9a.412.412,0,0,0,.412-.412A8.245,8.245,0,0,0,267.078,0a.412.412,0,0,0-.412.412V8.236A.412.412,0,0,0,267.078,8.648ZM267.49.835a7.423,7.423,0,0,1,6.989,6.989H267.49Z" transform="translate(-256.371)"/><path d="M296.234,245.333H288.41a.412.412,0,0,0-.291.7l5.533,5.533a.412.412,0,0,0,.582,0,8.183,8.183,0,0,0,2.412-5.824A.412.412,0,0,0,296.234,245.333Zm-2.3,5.354-4.53-4.53h6.407A7.349,7.349,0,0,1,293.935,250.687Z" transform="translate(-276.88 -235.862)"/><path d="M9.471,50.731V43.078a.412.412,0,0,0-.412-.412A9.059,9.059,0,1,0,15.876,57.68a.412.412,0,0,0-.019-.562Zm-.412,9.23A8.236,8.236,0,0,1,8.648,43.5v7.4a.412.412,0,0,0,.121.291L15,57.421A8.231,8.231,0,0,1,9.059,59.961Z" transform="translate(0 -41.019)"/></svg>