<svg xmlns="http://www.w3.org/2000/svg" width="19.624" height="19.624" viewBox="0 0 19.624 19.624"><path d="M338.548,217.473a.575.575,0,1,1-.575-.575A.575.575,0,0,1,338.548,217.473Zm0,0" transform="translate(-324.466 -208.585)"/><path d="M299.348,72.3a2.113,2.113,0,0,0-2.114,2.114h0a.575.575,0,1,0,1.15,0,.965.965,0,1,1,.965.965.575.575,0,0,0-.575.575v.616a.575.575,0,1,0,1.15,0v-.12a2.115,2.115,0,0,0-.576-4.15Zm0,0" transform="translate(-285.842 -69.53)"/><path d="M5.517,246.435a3.038,3.038,0,1,0-3.726,0A3.65,3.65,0,0,0,0,249.58v1.232a.575.575,0,0,0,.575.575H6.733a.575.575,0,0,0,.575-.575V249.58A3.65,3.65,0,0,0,5.517,246.435Zm-3.751-2.4a1.888,1.888,0,1,1,1.888,1.888A1.891,1.891,0,0,1,1.766,244.038Zm4.392,6.2H1.15v-.657a2.5,2.5,0,1,1,5.008,0v.657Zm0,0" transform="translate(0 -231.763)"/><path d="M202.613,0h-7.39A2.421,2.421,0,0,0,192.8,2.422V13.507a.575.575,0,0,0,.92.46l2.31-1.732h6.582a2.421,2.421,0,0,0,2.422-2.422V2.422A2.421,2.421,0,0,0,202.613,0Zm1.272,9.812a1.271,1.271,0,0,1-1.272,1.272h-6.774a.576.576,0,0,0-.345.115l-1.543,1.157V2.422a1.272,1.272,0,0,1,1.272-1.272h7.39a1.271,1.271,0,0,1,1.272,1.272Zm0,0" transform="translate(-185.411)"/></svg>