<svg xmlns="http://www.w3.org/2000/svg" width="129.785" height="45.104" viewBox="0 0 129.785 45.104">
  <g id="Group_341" data-name="Group 341" transform="translate(-133.022 -84.896)">
    <g id="Group_338" data-name="Group 338" transform="translate(133.022 102.638)">
      <g id="Group_332" data-name="Group 332" transform="translate(0 0.096)">
        <g id="Group_330" data-name="Group 330" transform="translate(0)">
          <path id="Path_409" data-name="Path 409" d="M5.068,14.286V19.24H1.652V5.116H7.186a5.374,5.374,0,0,1,3.836,1.249A4.416,4.416,0,0,1,12.34,9.731a4.638,4.638,0,0,1-.589,2.347A4.086,4.086,0,0,1,10,13.7a6.158,6.158,0,0,1-2.817.589Zm1.738-2.737q2.058,0,2.058-1.818,0-1.858-2.058-1.858H5.068v3.676ZM21.63,19.24l-3.057-5.334h-.779V19.24H14.378V5.116h5.833a6.3,6.3,0,0,1,2.837.579,4,4,0,0,1,1.738,1.588,4.55,4.55,0,0,1,.579,2.307,4.1,4.1,0,0,1-.849,2.617,4.34,4.34,0,0,1-2.467,1.478l3.356,5.554Zm-3.836-7.671h2.118a2.133,2.133,0,0,0,1.5-.449,1.735,1.735,0,0,0,.479-1.329A1.761,1.761,0,0,0,21.4,8.472a2.051,2.051,0,0,0-1.488-.479H17.794ZM51.317,4.976a6.909,6.909,0,0,1,4.465,1.418,6.49,6.49,0,0,1,2.287,3.836H54.453a3.318,3.318,0,0,0-1.229-1.538,3.434,3.434,0,0,0-1.968-.559,3,3,0,0,0-2.417,1.1,4.43,4.43,0,0,0-.919,2.937,4.39,4.39,0,0,0,.919,2.927,3.009,3.009,0,0,0,2.417,1.089,3.434,3.434,0,0,0,1.968-.559,3.332,3.332,0,0,0,1.229-1.518h3.616a6.525,6.525,0,0,1-2.287,3.826,6.877,6.877,0,0,1-4.465,1.428,7.045,7.045,0,0,1-3.616-.909A6.17,6.17,0,0,1,45.293,15.9a8,8,0,0,1-.849-3.736,8,8,0,0,1,.849-3.736A6.17,6.17,0,0,1,47.7,5.885,7.045,7.045,0,0,1,51.317,4.976ZM63.763,7.833v2.957h4.775v2.577H63.763V16.5h5.374V19.24h-8.79V5.116h8.79V7.833Zm17.82,7.432a3.894,3.894,0,0,1-.569,2.058,4.015,4.015,0,0,1-1.678,1.5,5.913,5.913,0,0,1-2.687.559,6.328,6.328,0,0,1-3.916-1.159,4.2,4.2,0,0,1-1.678-3.236h3.636a1.919,1.919,0,0,0,.569,1.259,1.751,1.751,0,0,0,1.249.459,1.449,1.449,0,0,0,1.039-.36,1.259,1.259,0,0,0,.38-.959,1.238,1.238,0,0,0-.35-.9,2.741,2.741,0,0,0-.869-.589q-.519-.23-1.438-.549a17.66,17.66,0,0,1-2.188-.889,4.029,4.029,0,0,1-1.458-1.279,3.7,3.7,0,0,1-.609-2.208,3.717,3.717,0,0,1,.639-2.178,4.064,4.064,0,0,1,1.768-1.408A6.449,6.449,0,0,1,76.009,4.9a5.8,5.8,0,0,1,3.746,1.119,4.269,4.269,0,0,1,1.568,3.077h-3.7a1.9,1.9,0,0,0-.509-1.109,1.5,1.5,0,0,0-1.109-.41,1.429,1.429,0,0,0-.969.32,1.174,1.174,0,0,0-.37.939,1.192,1.192,0,0,0,.33.849,2.512,2.512,0,0,0,.829.569q.5.22,1.438.559a15.81,15.81,0,0,1,2.218.909,4.242,4.242,0,0,1,1.478,1.309A3.738,3.738,0,0,1,81.583,15.264Zm12.406,0a3.894,3.894,0,0,1-.569,2.058,4.015,4.015,0,0,1-1.678,1.5,5.913,5.913,0,0,1-2.687.559,6.328,6.328,0,0,1-3.916-1.159,4.2,4.2,0,0,1-1.678-3.236H87.1a1.919,1.919,0,0,0,.569,1.259,1.752,1.752,0,0,0,1.249.459,1.449,1.449,0,0,0,1.039-.36,1.259,1.259,0,0,0,.38-.959,1.238,1.238,0,0,0-.35-.9,2.741,2.741,0,0,0-.869-.589q-.519-.23-1.438-.549a17.66,17.66,0,0,1-2.188-.889,4.029,4.029,0,0,1-1.458-1.279,3.7,3.7,0,0,1-.609-2.208,3.717,3.717,0,0,1,.639-2.178,4.064,4.064,0,0,1,1.768-1.408A6.449,6.449,0,0,1,88.415,4.9a5.8,5.8,0,0,1,3.746,1.119,4.269,4.269,0,0,1,1.568,3.077h-3.7a1.9,1.9,0,0,0-.509-1.109,1.5,1.5,0,0,0-1.109-.41,1.429,1.429,0,0,0-.969.32,1.174,1.174,0,0,0-.37.939,1.192,1.192,0,0,0,.33.849,2.512,2.512,0,0,0,.829.569q.5.22,1.438.559a15.81,15.81,0,0,1,2.218.909,4.242,4.242,0,0,1,1.478,1.309A3.738,3.738,0,0,1,93.989,15.264Z" transform="translate(-1.203 -4.896)" fill="#bcbcbc"/>
          <path id="Path_410" data-name="Path 410" d="M8.074-9.786v6.922H7.165V-8.388L4.958-2.864H4.149l-2.218-5.5v5.5H1.022V-9.786H2.111L4.568-3.973,6.985-9.786Zm6.273,5.294h-3.1l-.589,1.628H9.682l2.607-6.912h1.029l2.6,6.912h-.979Zm-.26-.709L12.8-8.757,11.51-5.2ZM23-2.864h-.909L18.433-8.428v5.564h-.909V-9.906h.909l3.656,5.574V-9.906H23Zm6.273-1.628h-3.1l-.589,1.628h-.979l2.607-6.912h1.029l2.6,6.912H29.86Zm-.26-.709L27.722-8.757,26.434-5.2Zm6.633-4.775a3.4,3.4,0,0,1,2.063.609A2.964,2.964,0,0,1,38.83-7.709h-.959a2.154,2.154,0,0,0-.834-1.029,2.436,2.436,0,0,0-1.383-.39,2.5,2.5,0,0,0-1.289.335,2.336,2.336,0,0,0-.894.954,3.1,3.1,0,0,0-.325,1.458,3.136,3.136,0,0,0,.33,1.483,2.331,2.331,0,0,0,.914.959,2.655,2.655,0,0,0,1.344.335,2.543,2.543,0,0,0,1.189-.28,2.3,2.3,0,0,0,.884-.814,2.771,2.771,0,0,0,.415-1.254H35.454V-6.63H38.99v.839a3.5,3.5,0,0,1-.519,1.518,3.116,3.116,0,0,1-1.159,1.079,3.394,3.394,0,0,1-1.658.4,3.5,3.5,0,0,1-1.8-.454,3.159,3.159,0,0,1-1.214-1.269,3.9,3.9,0,0,1-.435-1.863,3.9,3.9,0,0,1,.435-1.863,3.194,3.194,0,0,1,1.214-1.274A3.453,3.453,0,0,1,35.643-9.976Zm6.173.809V-6.76h2.677v.7H41.817V-3.6h2.977v.739H40.908V-9.906h3.886v.739ZM53.7-9.786v6.922h-.909V-8.388L50.587-2.864h-.809l-2.218-5.5v5.5h-.909V-9.786H47.74L50.2-3.973l2.417-5.814Zm3.057.619V-6.76h2.677v.7H56.76V-3.6h2.977v.739H55.851V-9.906h3.886v.739Zm10.309,6.3h-.909L62.5-8.428v5.564h-.909V-9.906H62.5l3.656,5.574V-9.906h.909Zm6.463-7.042v.739H71.543v6.3h-.909v-6.3H68.647v-.739ZM79.185-5.7v2.837h-.909V-9.906h2.237a2.553,2.553,0,0,1,1.808.564,2.018,2.018,0,0,1,.6,1.543A1.965,1.965,0,0,1,82.3-6.255a2.6,2.6,0,0,1-1.788.554Zm1.249-.759a1.688,1.688,0,0,0,1.194-.35,1.306,1.306,0,0,0,.365-.989,1.316,1.316,0,0,0-.365-1,1.7,1.7,0,0,0-1.194-.345H79.185V-6.46Zm5.144,2.887h2.5v.709H84.669V-9.906h.909Zm8.241-.919h-3.1l-.589,1.628h-.979l2.607-6.912H92.79l2.6,6.912h-.979Zm-.26-.709L92.27-8.757,90.982-5.2Zm7.751-4.7v.739H99.322v6.3h-.909v-6.3H96.426v-.739Zm5.574,0v.739h-3.077V-6.73h2.607v.709h-2.607v3.156H102.9V-9.906Zm4.994-.09a3.422,3.422,0,0,1,1.763.459,3.27,3.27,0,0,1,1.234,1.284,3.826,3.826,0,0,1,.449,1.863,3.826,3.826,0,0,1-.449,1.863,3.27,3.27,0,0,1-1.234,1.284,3.422,3.422,0,0,1-1.763.459,3.476,3.476,0,0,1-1.773-.459,3.249,3.249,0,0,1-1.244-1.284,3.826,3.826,0,0,1-.449-1.863,3.826,3.826,0,0,1,.449-1.863,3.249,3.249,0,0,1,1.244-1.284A3.476,3.476,0,0,1,111.878-10Zm0,.849a2.541,2.541,0,0,0-1.3.335,2.319,2.319,0,0,0-.9.959,3.13,3.13,0,0,0-.325,1.463,3.138,3.138,0,0,0,.325,1.458,2.312,2.312,0,0,0,.9.964,2.541,2.541,0,0,0,1.3.335,2.493,2.493,0,0,0,1.294-.34,2.352,2.352,0,0,0,.9-.964A3.107,3.107,0,0,0,114.4-6.39a3.13,3.13,0,0,0-.325-1.463,2.319,2.319,0,0,0-.9-.959A2.522,2.522,0,0,0,111.878-9.147Zm9.1,6.283L119.14-5.741h-.989v2.877h-.909V-9.906h2.317a2.508,2.508,0,0,1,1.8.574,2.012,2.012,0,0,1,.6,1.523,1.97,1.97,0,0,1-.479,1.383,2.238,2.238,0,0,1-1.388.654l1.918,2.907ZM118.151-6.4h1.329q1.548,0,1.548-1.358T119.48-9.117h-1.329Zm12.656-3.386v6.922H129.9V-8.388l-2.208,5.524h-.809l-2.218-5.5v5.5h-.909V-9.786h1.089L127.3-3.973l2.417-5.814Z" transform="translate(-1.022 30.051)" fill="#3a3a3a"/>
        </g>
      </g>
      <path id="Path_401" data-name="Path 401" d="M303.608,150.906l-.059-.483-2.128-.392a5.384,5.384,0,0,0-.366-.875l1.227-1.782-.294-.379a7.875,7.875,0,0,0-1.306-1.306l-.379-.294-1.8,1.214a5.381,5.381,0,0,0-.875-.366l-.392-2.128-.483-.059a7.34,7.34,0,0,0-1.854,0l-.483.059-.392,2.128a5.381,5.381,0,0,0-.875.366l-1.782-1.227-.379.294a7.875,7.875,0,0,0-1.306,1.306l-.294.379,1.214,1.8a5.374,5.374,0,0,0-.366.875l-2.128.392-.059.483a7.339,7.339,0,0,0,0,1.854l.059.483,2.128.392a5.374,5.374,0,0,0,.366.875l-1.227,1.782.294.379a7.872,7.872,0,0,0,1.306,1.306l.379.294,1.8-1.214a5.38,5.38,0,0,0,.875.366l.392,2.128.483.059a7.341,7.341,0,0,0,1.854,0l.483-.059.392-2.128a5.38,5.38,0,0,0,.875-.366l1.782,1.227.379-.294a7.875,7.875,0,0,0,1.306-1.306l.294-.379-1.214-1.8a5.385,5.385,0,0,0,.366-.875l2.128-.392.059-.483a7.339,7.339,0,0,0,0-1.854Zm-5.816.927a1.958,1.958,0,1,1-1.958-1.958A1.958,1.958,0,0,1,297.792,151.833Z" transform="translate(-261.868 -144)" fill="#3a3a3a"/>
    </g>
    <g id="Group_340" data-name="Group 340" transform="translate(133.052 84.896)">
      <g id="Group_332-2" data-name="Group 332" transform="translate(0)">
        <g id="Group_330-2" data-name="Group 330" transform="translate(0 0)">
          <path id="Path_408" data-name="Path 408" d="M11.632-9.736a3.894,3.894,0,0,1-.569,2.058,4.015,4.015,0,0,1-1.678,1.5A5.913,5.913,0,0,1,6.7-5.62,6.328,6.328,0,0,1,2.782-6.779,4.2,4.2,0,0,1,1.1-10.015H4.74a1.919,1.919,0,0,0,.569,1.259A1.752,1.752,0,0,0,6.558-8.3,1.449,1.449,0,0,0,7.6-8.657a1.259,1.259,0,0,0,.38-.959,1.238,1.238,0,0,0-.35-.9,2.741,2.741,0,0,0-.869-.589q-.519-.23-1.438-.549a17.66,17.66,0,0,1-2.188-.889,4.029,4.029,0,0,1-1.458-1.279,3.7,3.7,0,0,1-.609-2.208A3.717,3.717,0,0,1,1.7-18.206a4.064,4.064,0,0,1,1.768-1.408A6.449,6.449,0,0,1,6.058-20.1,5.8,5.8,0,0,1,9.8-18.985a4.269,4.269,0,0,1,1.568,3.077h-3.7a1.9,1.9,0,0,0-.509-1.109,1.5,1.5,0,0,0-1.109-.41,1.429,1.429,0,0,0-.969.32,1.174,1.174,0,0,0-.37.939,1.192,1.192,0,0,0,.33.849,2.512,2.512,0,0,0,.829.569q.5.22,1.438.559a15.81,15.81,0,0,1,2.218.909,4.242,4.242,0,0,1,1.478,1.309A3.738,3.738,0,0,1,11.632-9.736Zm18.26-10.049V-5.76H26.476v-8.77L23.439-5.76H20.482l-3.057-8.79v8.79H14.01V-19.784h4.175L22-10.015l3.736-9.769ZM41.479-8.337H36.185L35.306-5.76h-3.6l5.174-14.024H40.82L45.994-5.76H42.358Zm-.879-2.6-1.758-5.194-1.778,5.194ZM55.044-5.76l-3.057-5.334h-.779V-5.76H47.792V-19.884h5.833a6.3,6.3,0,0,1,2.837.579A4,4,0,0,1,58.2-17.717a4.55,4.55,0,0,1,.579,2.307,4.1,4.1,0,0,1-.849,2.617,4.34,4.34,0,0,1-2.467,1.478L58.82-5.76Zm-3.836-7.671h2.118a2.133,2.133,0,0,0,1.5-.449,1.735,1.735,0,0,0,.479-1.329,1.761,1.761,0,0,0-.489-1.319,2.051,2.051,0,0,0-1.488-.479H51.208Zm19.918-6.453v2.717H67.29V-5.76H63.854V-17.167h-3.8v-2.717Z" transform="translate(-1.064 20.104)" fill="#ed1500"/>
        </g>
      </g>
    </g>
  </g>
</svg>
