<svg height="512pt" viewBox="0 -2 512.00142 512" width="512pt" xmlns="http://www.w3.org/2000/svg"><path d="m504.496094 280.421875-79.714844-45.980469 63.546875-66.605468c4.234375-4.441407 5.339844-11.011719 2.789063-16.589844-2.546876-5.582032-8.234376-9.042969-14.367188-8.746094l-91.875 4.457031 17.488281-90.417969c1.164063-6.027343-1.457031-12.152343-6.621093-15.46875-5.167969-3.316406-11.832032-3.152343-16.824219.414063l-74.871094 53.464844-34.113281-85.507813c-2.273438-5.699218-7.792969-9.441406-13.933594-9.441406-6.136719 0-11.65625 3.742188-13.929688 9.441406l-34.113281 85.507813-74.871093-53.464844c-4.996094-3.566406-11.660157-3.730469-16.824219-.414063-5.164063 3.3125-7.789063 9.441407-6.621094 15.46875l17.484375 90.417969-91.875-4.460937c-6.125-.300782-11.820312 3.167968-14.367188 8.75-2.550781 5.578125-1.445312 12.148437 2.789063 16.589844l63.546875 66.601562-79.714844 45.984375c-5.3125 3.066406-8.222656 9.058594-7.351562 15.128906.875 6.074219 5.359375 11 11.320312 12.445313l89.417969 21.636718-42.230469 81.828126c-2.8125 5.453124-2.023437 12.070312 2 16.703124 4.019532 4.636719 10.457032 6.359376 16.253906 4.34375l86.890626-30.1875 8.664062 91.679688c.578125 6.109375 4.824219 11.25 10.710938 12.980469 5.890624 1.726562 12.238281-.308594 16.027343-5.136719l56.789063-72.417969 56.792968 72.417969c2.894532 3.683594 7.273438 5.742188 11.804688 5.742188 1.40625 0 2.828125-.195313 4.222656-.605469 5.890625-1.730469 10.132813-6.871094 10.710938-12.980469l8.667968-91.679688 86.890626 30.1875c5.800781 2.015626 12.234374.292969 16.253906-4.34375 4.019531-4.632812 4.8125-11.25 1.996094-16.703124l-42.226563-81.828126 89.417969-21.636718c5.960937-1.445313 10.445312-6.371094 11.316406-12.445313.875-6.070312-2.035156-12.0625-7.347656-15.128906zm0 0" fill="#ff9f00"/><path d="m504.496094 280.421875-79.714844-45.980469 63.546875-66.605468c4.234375-4.441407 5.339844-11.011719 2.789063-16.589844-2.546876-5.582032-8.234376-9.042969-14.367188-8.746094l-91.875 4.457031 17.488281-90.417969c1.164063-6.027343-1.457031-12.152343-6.621093-15.46875-5.167969-3.316406-11.832032-3.152343-16.824219.414063l-74.871094 53.464844-34.113281-85.507813c-2.273438-5.699218-7.792969-9.441406-13.933594-9.441406v429.425781l56.792969 72.417969c2.890625 3.6875 7.273437 5.742188 11.804687 5.742188 1.40625 0 2.828125-.195313 4.222656-.605469 5.890626-1.726563 10.132813-6.871094 10.710938-12.980469l8.667969-91.675781 86.886719 30.183593c5.800781 2.015626 12.238281.292969 16.257812-4.339843 4.019531-4.636719 4.8125-11.253907 1.996094-16.707031l-42.226563-81.828126 89.417969-21.636718c5.960938-1.441406 10.445312-6.371094 11.316406-12.441406.871094-6.074219-2.039062-12.066407-7.351562-15.132813zm0 0" fill="#f77e00"/><path d="m256 148.792969c-57.894531 0-105 47.101562-105 105 0 57.898437 47.105469 105 105 105 57.898438 0 105-47.101563 105-105 0-57.898438-47.101562-105-105-105zm0 0" fill="#fff04a"/><path d="m256 148.792969v210c57.898438 0 105-47.101563 105-105 0-57.898438-47.101562-105-105-105zm0 0" fill="#f2d813"/></svg>