<svg xmlns="http://www.w3.org/2000/svg" width="184" height="77" viewBox="0 0 184 77">
  <g id="Group_338" data-name="Group 338" transform="translate(801 -40)">
    <g id="Group_332" data-name="Group 332" transform="translate(-801 40)">
      <g id="Group_330" data-name="Group 330">
        <text id="SMART_PR_CESS" data-name="SMART 
PR    CESS" transform="translate(0 29)" fill="#ed1500" font-size="28" font-family="Poppins-Bold, Poppins" font-weight="700" letter-spacing="0.024em"><tspan x="0" y="0">SMART </tspan><tspan fill="#bcbcbc" letter-spacing="0.018em"><tspan x="0" y="25" xml:space="preserve">PR    CESS</tspan></tspan></text>
        <text id="MANAGEMENT_PLATFORM" data-name="MANAGEMENT PLATFORM" transform="translate(0 72)" fill="#fff" font-size="14" font-family="Poppins-Regular, Poppins" letter-spacing="0.069em"><tspan x="0" y="0">MANAGEMENT PLATFORM</tspan></text>
      </g>
    </g>
    <path id="Path_401" data-name="Path 401" d="M309.876,153.68l-.082-.677-2.983-.549a7.547,7.547,0,0,0-.512-1.226l1.72-2.5-.412-.531a11.037,11.037,0,0,0-1.83-1.83l-.531-.412-2.516,1.7a7.542,7.542,0,0,0-1.226-.512l-.549-2.983-.677-.082a10.289,10.289,0,0,0-2.6,0l-.677.082-.549,2.983a7.545,7.545,0,0,0-1.226.512l-2.5-1.72-.531.412a11.036,11.036,0,0,0-1.83,1.83l-.412.531,1.7,2.516a7.533,7.533,0,0,0-.512,1.226l-2.983.549-.082.677a10.289,10.289,0,0,0,0,2.6l.082.677,2.983.549a7.534,7.534,0,0,0,.512,1.226l-1.72,2.5.412.531a11.034,11.034,0,0,0,1.83,1.83l.531.412,2.516-1.7a7.543,7.543,0,0,0,1.226.512l.549,2.983.677.082a10.292,10.292,0,0,0,2.6,0l.677-.082.549-2.983a7.54,7.54,0,0,0,1.226-.512l2.5,1.72.531-.412a11.035,11.035,0,0,0,1.83-1.83l.412-.531-1.7-2.516a7.547,7.547,0,0,0,.512-1.226l2.983-.549.082-.677a10.286,10.286,0,0,0,0-2.6Zm-8.152,1.3a2.745,2.745,0,1,1-2.745-2.745A2.745,2.745,0,0,1,301.724,154.979Z" transform="translate(-1051.352 -70.238)" fill="#fff"/>
  </g>
</svg>
