<svg id="Page-1" xmlns="http://www.w3.org/2000/svg" xmlns:xlink="http://www.w3.org/1999/xlink" width="113.855" height="53.467" viewBox="0 0 113.855 53.467">
  <defs>
    <linearGradient id="linear-gradient" x1="0.5" x2="0.5" y2="1" gradientUnits="objectBoundingBox">
      <stop offset="0" stop-color="#ed1500"/>
      <stop offset="1" stop-color="#d70900"/>
    </linearGradient>
  </defs>
  <path id="Shape" d="M105.4,50.593l.04-.04V51.97a1.731,1.731,0,0,1-1.3.648c-.567,0-.971-.2-.971-.85,0-.971,1.052-1.214,1.619-1.214.081,0,.4.04.607.04Zm-59.336,0c.04.04.081.04.121-.04v1.376a1.73,1.73,0,0,1-1.336.688c-.526,0-.931-.162-.931-.81,0-.971.971-1.255,1.579-1.255a3.307,3.307,0,0,1,.567.04Zm-5.181.364c0,1.336-1.012,1.5-1.9,1.5a4.681,4.681,0,0,1-.688-.04V49.541a4.808,4.808,0,0,0,.769,0c1.012,0,1.821.2,1.821,1.417Zm-9.431-1.9v3.076a1.49,1.49,0,0,1-1.012.445c-1.376,0-1.74-.971-1.74-1.983a1.845,1.845,0,0,1,1.7-2.064,1.176,1.176,0,0,1,1.052.526Zm-6.557-.486a1.644,1.644,0,0,1,.971,1.093v.2h-3v-.121a1.5,1.5,0,0,1,1.538-1.214,2.323,2.323,0,0,1,.486.04Zm45.9,1.943c0,.81-.243,2.064-1.5,2.064-1.3,0-1.417-1.3-1.417-2.024s.2-2.064,1.457-2.064S70.79,49.744,70.79,50.513ZM95.561,47.76v5.586h-.971V48.57H93.82v-.81h1.74Zm-79.249,0v5.586H15.3V48.57H14.53v-.81h1.781Zm66.9,3.157H81.071l1.133-3.2Zm22.383-3c.526.2.89,1.214.89,1.659v2.631a.965.965,0,0,0,.445.729v.486h-.486c-.324-.081-.809-.364-.89-.688a2.511,2.511,0,0,1-1.781.729,1.639,1.639,0,0,1-1.619-1.7c0-1.5,1.619-2.024,2.59-2.024.081,0,.445.081.688.121a.3.3,0,0,0,.04-.2,1.107,1.107,0,0,0-1.255-1.133,1.888,1.888,0,0,0-1.336.486,3.353,3.353,0,0,1-.445-.81c0-.081.364-.283.526-.324a2.331,2.331,0,0,1,.688-.2,2.489,2.489,0,0,1,.526-.04,4.2,4.2,0,0,1,1.417.283Zm-4.25.283c-.121.2-.283.445-.445.688a2.3,2.3,0,0,0-1.336-.4c-1.417,0-1.74,1.214-1.74,2.1,0,1.174.567,2.024,1.781,2.024a2.642,2.642,0,0,0,1.376-.526l.4.81a4.377,4.377,0,0,1-1.983.567,2.65,2.65,0,0,1-2.59-2.145c0-.081-.04-.243-.04-.324v-.769a2.66,2.66,0,0,1,2.833-2.59,3.543,3.543,0,0,1,1.74.567Zm-7.974-.486-.364.971a3.876,3.876,0,0,0-.688-.2,1.463,1.463,0,0,0-1.3,1.3v3.562H90.016V47.76h1.012a4.9,4.9,0,0,0,.04.769,1.673,1.673,0,0,1,1.538-.89,7.139,7.139,0,0,1,.769.081Zm-17.04.081c-.121.324-.243.607-.364.89a3.878,3.878,0,0,0-.688-.2,1.463,1.463,0,0,0-1.3,1.3v3.562H72.976V47.76h1.012a4.9,4.9,0,0,0,.04.769,1.673,1.673,0,0,1,1.538-.89,3.913,3.913,0,0,1,.769.162Zm-4.493,2.712c0,1.417-.607,2.955-2.509,2.955-1.862,0-2.55-1.538-2.55-2.955a2.6,2.6,0,0,1,2.55-2.874C71.276,47.639,71.843,49.136,71.843,50.513ZM51.848,47.679c.688,0,1.336,1.012,1.336,1.619v4.047h-.971V49.663a1.07,1.07,0,0,0-1.133-1.174c-.121,0-.2-.04-.243,0-.243.04-1.093.4-1.093.729v4.128h-.971V47.76h.688c.081.2.2.445.283.648a1.948,1.948,0,0,1,1.619-.769c.081,0,.324.04.486.04Zm-4.857,1.052c.04.2.2.526.2.648V52.01c.081.243.04.688.445.931v.486h-.445c-.283-.04-.81-.283-.89-.688-.243.486-1.417.729-1.821.729a1.666,1.666,0,0,1-1.619-1.7c0-1.5,1.619-2.024,2.59-2.024.081,0,.486.081.729.121.04-.04.04-.04.04-.162a1.126,1.126,0,0,0-1.255-1.174,1.778,1.778,0,0,0-1.336.486,2.066,2.066,0,0,1-.486-.81,3.321,3.321,0,0,1,1.781-.567c.567,0,1.781.162,2.064,1.093Zm-20.116,1.3a3.738,3.738,0,0,1-.04.607H22.787v.324a1.709,1.709,0,0,0,1.781,1.659,2.28,2.28,0,0,0,1.376-.486c.162.2.283.445.445.688a3.757,3.757,0,0,1-2.024.648,2.653,2.653,0,0,1-2.631-2.874,2.728,2.728,0,0,1,2.631-2.955,2.266,2.266,0,0,1,2.509,2.388ZM12.466,47.8a2.243,2.243,0,0,1,.567.526,3.767,3.767,0,0,1,.364.971v4.048h-.971V49.663c-.162-.931-.486-1.174-1.133-1.174a1.62,1.62,0,0,0-1.336.729v4.128H8.985V47.76h.688c.081.2.2.445.283.648a1.948,1.948,0,0,1,1.619-.769,3.186,3.186,0,0,1,.89.162Zm28.009-.243c0,1.052-.89,1.174-1.579,1.174h-.607V46.546h.648c.607,0,1.538,0,1.538,1.012Zm-21.249.2h1.538v.769H19.226v3.157c.2.729.486.931.971.931a4.669,4.669,0,0,0,.81-.2c.04.283.121.607.162.89-.445.081-1.255.162-1.376.162a1.665,1.665,0,0,1-1.579-1.579V48.529h-.648V47.76h.648V46.587a10.119,10.119,0,0,1,1.012-.364V47.76ZM3.157,45.7v5.181c.162,1.214.809,1.659,1.619,1.659a1.669,1.669,0,0,0,1.659-1.255V45.7H7.488V51.4a2.436,2.436,0,0,1-2.712,2.064,2.522,2.522,0,0,1-2.469-1.336,4.1,4.1,0,0,1-.162-.729V45.7H3.157Zm92.566.526a.585.585,0,0,1-.607.648.619.619,0,0,1-.607-.607.537.537,0,0,1,.607-.607.543.543,0,0,1,.607.567Zm-79.249,0a.664.664,0,0,1-.648.648.619.619,0,0,1-.607-.607.594.594,0,0,1,.607-.607.576.576,0,0,1,.648.567Zm25.094,1.255a1.692,1.692,0,0,1-1.093,1.538l-.04.081a1.937,1.937,0,0,1,1.619,2.024c0,.081-.081.445-.121.648-.121.89-1.538,1.579-2.226,1.579H37.2V45.615h1.9c1.093,0,2.469.324,2.469,1.862Zm40.8-1.9,2.914,7.771H84.107c-.162-.526-.364-1.093-.567-1.619H80.788a13.151,13.151,0,0,0-.607,1.619H79.007c1.012-2.59,2.064-5.181,3.076-7.771h.283Zm6.921.04a6.416,6.416,0,0,1-.324.729c-.121,0-.4-.081-.526-.081a1.106,1.106,0,0,0-1.052,1.214c0,.081.04.162.04.283h1.133v.81H87.426v4.776h-.971V48.57h-.809v-.81h.809c-.04-1.336.648-2.307,1.9-2.307a7.489,7.489,0,0,1,.931.162Zm-22.787,0-.243.729a3.173,3.173,0,0,0-.567-.081,1.122,1.122,0,0,0-1.052.931v.567h1.174v.81H64.638v4.776h-.971V48.57h-.81v-.81h.81c0-1.376.688-2.307,1.9-2.307a5.62,5.62,0,0,1,.931.162Zm-10.888-.162V50.27l2.1-2.509h1.174l-1.74,2.1L59.3,53.346H58.2l-1.74-2.793c-.243.283-.567.607-.85.89v1.9H54.6V45.453h1.012Zm-23.152,0v7.893h-.971a1.122,1.122,0,0,0-.04-.364,2.281,2.281,0,0,1-1.457.445c-1.781,0-2.388-1.5-2.388-2.752s.85-3.036,2.59-3.036a2.74,2.74,0,0,1,1.3.364v-2.55h.971Zm5.059-19.1c2.388.526,3.44,1.862,3.44,3.724a6.5,6.5,0,0,1-.162,1.255,3.815,3.815,0,0,1-.729,1.255,7.523,7.523,0,0,1-4.9,2.752H31.125c.648-2.955,1.214-5.99,1.862-8.9,0-.081.04-.121.121-.162l3.076-.081c.081,0,.89.081,1.336.162Zm26.835,3.4H57.029l5.343-8.176ZM41.649,19.1c0,.081-.162.85-.2,1.255a4.247,4.247,0,0,1-1.983,2.793,16.18,16.18,0,0,1-2.307,1.214h-3.6c.121-.648.243-1.336.364-1.983.081-.4.2-.85.243-1.255.081-.4.2-.85.243-1.255.081-.4.2-.85.243-1.255.081-.4.115-.627.2-1.255.088-.722.034-.749.445-.729l3.036-.081c1.3,0,3.319.688,3.319,2.55Zm24.042-5.747L71.762,38.33H66.3l-.971-4.9H54.762l-3.238,4.9H46.991L63.91,13.357h1.781Zm-24.163,0c3.643.4,5.343,2.1,5.343,4.938,0,3.036-2.1,5.3-5.788,6.516a.243.243,0,0,0,.162.04c2.712.4,4.655,1.983,4.655,4.452,0,3.926-2.428,7.569-7.69,8.743a22.628,22.628,0,0,1-2.428.364H25.459L30.68,13.357H41.527Zm-32.906,0c-.4,2.145-.85,4.169-1.255,6.193-.324,1.5-.648,3.076-.931,4.614a38.627,38.627,0,0,0-1.052,6.719c0,2.469.81,4.7,4.007,4.7,3.076,0,6.112-2.024,7.083-6.152,1.255-5.343,2.307-10.726,3.44-16.068h4.614v.121c-1.3,5.869-2.509,11.738-3.845,17.566A8.577,8.577,0,0,1,19.1,33.918a11.591,11.591,0,0,1-8.459,4.776c-.324.04-.89.121-1.012.121H7.164c-.486-.04-1.012-.121-1.457-.2s-.931-.2-1.376-.324A6,6,0,0,1,0,32.3v-.971c.04-.283.04-.607.081-.931C1.255,24.73,2.428,19.023,3.6,13.357H8.621Zm83.9,24.811c-.648.081-1.9.243-2.024.243H80.423l6.8-31.935c3.562,6.962,7.124,14,10.645,21.047A13.564,13.564,0,0,1,99.042,32.3c0,3.521-2.469,5.221-6.516,5.869Zm14.49-6.233c-2.064-4.007-4.128-8.054-6.152-12.061-1.133-2.226-2.267-4.533-3.4-6.719-.364-.769-.769-1.457-1.093-2.186A15.931,15.931,0,0,1,95.2,6.517v-.85a6.249,6.249,0,0,1,.2-1.255C96.613.567,101.106.2,103.777,0h10.078Z" fill-rule="evenodd" fill="url(#linear-gradient)"/>
</svg>
